<svg xmlns="http://www.w3.org/2000/svg" viewBox="0 0 512 512">
  <defs>
    <linearGradient id="grad1" x1="0%" y1="0%" x2="100%" y2="100%">
      <stop offset="0%" style="stop-color:#0d6efd;stop-opacity:1" />
      <stop offset="100%" style="stop-color:#0a58ca;stop-opacity:1" />
    </linearGradient>
  </defs>
  
  <rect x="32" y="32" width="448" height="448" rx="100" ry="100" fill="url(#grad1)" />
  
  <g transform="translate(116, 116) scale(0.6)">
    <path d="M40 0H280C293.3 0 305.9 5.3 315.3 14.7L369.3 68.7C378.7 78.1 384 90.7 384 104V448C384 465.7 369.7 480 352 480H40C22.3 480 8 465.7 8 448V32C8 14.3 22.3 0 40 0Z" fill="#ffffff"/>
    
    <path d="M280 0V80C280 93.3 290.7 104 304 104H384" fill="#e9ecef"/>
    
    <rect x="64" y="144" width="200" height="24" rx="8" fill="#cfe2ff"/>
    <rect x="64" y="192" width="256" height="24" rx="8" fill="#cfe2ff"/>
    <rect x="64" y="240" width="256" height="24" rx="8" fill="#cfe2ff"/>
    <rect x="64" y="288" width="180" height="24" rx="8" fill="#cfe2ff"/>
    
    <path d="M280 360 L310 420 L370 330" fill="none" stroke="#2e7d32" stroke-width="32" stroke-linecap="round" stroke-linejoin="round"/>
  </g>

  <path d="M380 80 L390 110 L420 120 L390 130 L380 160 L370 130 L340 120 L370 110 Z" fill="#ffc107"/>
</svg>