<svg width="512" height="512" viewBox="0 0 512 512" xmlns="http://www.w3.org/2000/svg">
  <rect x="0" y="0" width="512" height="512" rx="100" ry="100" fill="#0d6efd"/>
  
  <g transform="translate(0, 20)">
    <rect x="40" y="50" width="432" height="320" rx="20" ry="20" fill="#8b4513"/>
    <rect x="60" y="70" width="392" height="280" rx="10" ry="10" fill="#1b4d3e"/>
    
    <text x="256" y="125" font-family="'Microsoft JhengHei', sans-serif" font-size="32" font-weight="bold" fill="#ffffff" text-anchor="middle" letter-spacing="4">教師課務薪資系統</text>
    <line x1="100" y1="140" x2="412" y2="140" stroke="#ffffff" stroke-width="3" stroke-linecap="round" opacity="0.3"/>

    <g transform="translate(80, 160)" stroke="#ffffff" stroke-width="3" stroke-linecap="round" opacity="0.9">
      <line x1="0" y1="0" x2="240" y2="0"/>
      <line x1="0" y1="50" x2="240" y2="50"/>
      <line x1="0" y1="100" x2="240" y2="100"/>
      <line x1="0" y1="150" x2="240" y2="150"/>
      <line x1="0" y1="0" x2="0" y2="150"/>
      <line x1="60" y1="0" x2="60" y2="150"/>
      <line x1="120" y1="0" x2="120" y2="150"/>
      <line x1="180" y1="0" x2="180" y2="150"/>
      <line x1="240" y1="0" x2="240" y2="150"/>
      
      <rect x="5" y="5" width="50" height="40" fill="#ffc107" rx="5" stroke="none"/>
      <rect x="125" y="5" width="50" height="40" fill="#ffc107" rx="5" stroke="none"/>
      <rect x="65" y="55" width="50" height="40" fill="#ffc107" rx="5" stroke="none"/>
      <rect x="185" y="55" width="50" height="40" fill="#ffc107" rx="5" stroke="none"/>
      <rect x="65" y="105" width="50" height="40" fill="#ffc107" rx="5" stroke="none"/>
    </g>

    <rect x="50" y="380" width="412" height="20" rx="10" ry="10" fill="#a0522d"/>
  </g>

  <g transform="translate(320, 240)">
    <path d="M20,100 L130,100 L120,250 L30,250 Z" fill="#17a2b8" stroke="#ffffff" stroke-width="0"/> <path d="M20,100 Q75,80 130,100" fill="#17a2b8"/> <circle cx="75" cy="50" r="55" fill="#ffdbac"/> 
    
    <circle cx="55" cy="45" r="4" fill="#333"/> <circle cx="95" cy="45" r="4" fill="#333"/> <path d="M70,55 Q75,65 80,55" stroke="#333" stroke-width="3" fill="none" stroke-linecap="round"/> <circle cx="45" cy="60" r="8" fill="#ff8a80" opacity="0.6"/>
    <circle cx="105" cy="60" r="8" fill="#ff8a80" opacity="0.6"/>

    <path d="M20,30 Q75,-50 130,30" fill="#333"/> <line x1="110" y1="120" x2="150" y2="90" stroke="#ffdbac" stroke-width="14" stroke-linecap="round"/>
    <circle cx="150" cy="90" r="7" fill="#ffdbac"/> <line x1="150" y1="90" x2="50" y2="20" stroke="#8b4513" stroke-width="5" stroke-linecap="round"/>
  </g>
</svg>